<svg xmlns="http://www.w3.org/2000/svg" viewBox="0 0 922.8 191.9" fill="none">
<g transform="translate(20.00,20.00) scale(0.12880)" fill="#22D3EE"><g transform="translate(0.000000,1118.000000) scale(0.100000,-0.100000)" stroke="none"><path d="M4810 10403 c0 -3 57 -60 128 -128 231 -223 466 -518 626 -786 76
-126 161 -297 153 -305 -2 -2 -94 2 -203 11 -302 23 -439 32 -442 29 -2 -1 33
-79 77 -172 45 -93 81 -172 81 -176 0 -4 -20 -33 -44 -65 -183 -238 -363 -599
-450 -901 -37 -132 -57 -263 -63 -416 -10 -247 -18 -219 198 -635 241 -461
301 -585 343 -712 119 -359 112 -912 -18 -1519 -36 -166 -124 -468 -136 -468
-4 0 -11 26 -15 58 -10 83 -49 272 -89 430 -105 414 -307 871 -536 1212 -203
301 -577 674 -980 975 -36 26 -69 51 -73 55 -5 4 26 76 68 160 42 84 74 155
70 158 -3 3 -148 -8 -323 -25 -174 -16 -319 -29 -320 -27 -7 5 113 213 203
349 178 270 379 506 593 695 72 63 129 116 127 118 -1 2 -38 -6 -82 -17 -509
-130 -1086 -494 -1482 -936 -54 -60 -131 -149 -171 -197 l-71 -86 -152 -62
-152 -61 -70 -146 c-125 -261 -168 -330 -295 -464 -99 -106 -231 -229 -428
-399 l-52 -45 73 -252 c40 -139 77 -257 82 -262 6 -5 96 -45 200 -89 277 -117
278 -117 283 -104 2 6 38 80 80 164 l77 153 80 32 c589 233 871 343 883 343
17 0 130 -92 249 -203 503 -471 801 -969 907 -1516 51 -263 57 -432 43 -1231
l-9 -456 1024 -779 c563 -429 1066 -812 1118 -852 53 -40 98 -73 102 -73 3 0
78 55 166 123 88 67 290 221 449 341 290 221 610 465 1088 831 143 110 322
246 398 304 l137 105 -7 391 c-13 651 -10 982 11 1120 91 619 344 1110 816
1586 146 148 333 309 356 309 19 0 951 -366 966 -379 4 -4 41 -76 83 -161 42
-85 79 -156 84 -158 4 -1 113 42 242 97 l234 100 28 88 c38 123 117 410 116
425 0 7 -59 63 -130 123 -152 129 -433 410 -475 475 -16 25 -76 139 -134 255
l-105 209 -145 57 -145 57 -115 143 c-139 173 -346 389 -482 502 -283 233
-622 420 -953 526 -131 42 -255 74 -261 68 -2 -2 27 -29 64 -61 274 -234 568
-578 732 -856 71 -120 134 -240 128 -245 -2 -1 -148 12 -326 29 -178 17 -324
30 -326 29 -2 -2 32 -73 76 -158 l78 -154 -145 -115 c-372 -297 -611 -539
-850 -861 -350 -471 -592 -1059 -696 -1695 -6 -41 -13 -70 -15 -65 -11 34 -73
376 -128 710 -36 215 -81 464 -101 555 -132 608 -303 1089 -612 1713 -46 92
-83 175 -83 183 0 29 70 297 107 410 l37 111 110 -37 c124 -42 473 -167 640
-229 60 -22 119 -50 131 -63 19 -20 53 -92 119 -250 l16 -37 87 25 c49 13 140
38 203 55 l115 31 81 279 80 278 -154 160 c-212 221 -365 402 -408 484 -20 38
-69 142 -110 231 -50 110 -80 165 -96 174 -13 7 -89 44 -169 82 l-146 68 -96
124 c-100 129 -260 304 -387 423 -278 262 -636 495 -965 628 -144 59 -425 145
-425 130z"/></g></g>
<g transform="translate(208.95,43.47) scale(0.13928)" fill="#F4FAFC"><g transform="scale(1,-1) translate(-62.0,-729)"><path transform="translate(0.0,0)" d="M201 291C201 377 248 421 303 421C366 421 397 377 397 298V0H535V345C535 474 461 544 354 544C284 544 238 513 201 464V718H62V0H201Z"/><path transform="translate(573.0,0)" d="M543 534H404L282 168L148 534H-2L208 6L132 -193H283Z"/><path transform="translate(1095.0,0)" d="M27 267C27 111 120 -10 264 -10C333 -10 391 21 433 77V0H560V718H422V465C382 516 328 544 264 544C120 544 27 425 27 267ZM170 267C170 369 227 421 295 421C363 421 421 370 421 269C421 168 364 114 295 114C227 114 170 167 170 267Z"/><path transform="translate(1697.0,0)" d="M201 259C201 377 280 405 398 396V540C312 540 229 499 190 431V534H62V0H201Z"/><path transform="translate(2085.0,0)" d="M380 0H493V336C493 467 411 544 271 544C142 544 53 464 45 341H170C175 401 211 436 271 436C329 436 363 401 363 341V309C330 313 304 315 274 315C118 315 34 259 34 155C34 55 108 -10 219 -10C292 -10 345 16 380 66ZM165 159C165 207 204 232 283 232C307 232 330 230 363 225V187C363 125 320 86 249 86C197 86 165 114 165 159Z"/><path transform="translate(2616.0,0)" d="M251 0V415H390V534H251V560C251 597 276 612 314 612C332 612 352 609 367 603V713C344 723 315 729 281 729C170 729 113 669 113 563V534H5V415H113V0Z"/><path transform="translate(2995.0,0)" d="M294 -9C424 -9 517 60 547 181H409C393 128 352 98 291 98C220 98 178 146 169 233H548C573 407 461 544 292 544C138 544 27 428 27 269C27 102 134 -9 294 -9ZM289 442C355 442 397 395 401 321H171C183 400 224 442 289 442Z"/><path transform="translate(3554.0,0)" d="M394 135C374 124 350 118 324 118C274 118 246 143 246 205V415H399V534H246V692H108V534H0V415H108V173C108 53 177 -10 287 -10C328 -10 360 -3 394 14Z"/><path transform="translate(3956.0,0)" d="M287 -10C430 -10 530 81 546 228H400C392 155 351 113 287 113C214 113 169 171 169 267C169 362 215 421 287 421C350 421 393 377 400 306H546C529 450 426 544 287 544C137 544 27 427 27 267C27 104 133 -10 287 -10Z"/><path transform="translate(4509.0,0)" d="M201 291C201 377 248 421 303 421C366 421 397 377 397 298V0H535V345C535 474 461 544 354 544C284 544 238 513 201 464V718H62V0H201Z"/></g></g>
</svg>
