<svg xmlns="http://www.w3.org/2000/svg" viewBox="0 0 1203 1118" fill="none">
<g transform="translate(0.000000,1118.000000) scale(0.100000,-0.100000)" stroke="none" fill="#0891B2"><path d="M4810 10403 c0 -3 57 -60 128 -128 231 -223 466 -518 626 -786 76
-126 161 -297 153 -305 -2 -2 -94 2 -203 11 -302 23 -439 32 -442 29 -2 -1 33
-79 77 -172 45 -93 81 -172 81 -176 0 -4 -20 -33 -44 -65 -183 -238 -363 -599
-450 -901 -37 -132 -57 -263 -63 -416 -10 -247 -18 -219 198 -635 241 -461
301 -585 343 -712 119 -359 112 -912 -18 -1519 -36 -166 -124 -468 -136 -468
-4 0 -11 26 -15 58 -10 83 -49 272 -89 430 -105 414 -307 871 -536 1212 -203
301 -577 674 -980 975 -36 26 -69 51 -73 55 -5 4 26 76 68 160 42 84 74 155
70 158 -3 3 -148 -8 -323 -25 -174 -16 -319 -29 -320 -27 -7 5 113 213 203
349 178 270 379 506 593 695 72 63 129 116 127 118 -1 2 -38 -6 -82 -17 -509
-130 -1086 -494 -1482 -936 -54 -60 -131 -149 -171 -197 l-71 -86 -152 -62
-152 -61 -70 -146 c-125 -261 -168 -330 -295 -464 -99 -106 -231 -229 -428
-399 l-52 -45 73 -252 c40 -139 77 -257 82 -262 6 -5 96 -45 200 -89 277 -117
278 -117 283 -104 2 6 38 80 80 164 l77 153 80 32 c589 233 871 343 883 343
17 0 130 -92 249 -203 503 -471 801 -969 907 -1516 51 -263 57 -432 43 -1231
l-9 -456 1024 -779 c563 -429 1066 -812 1118 -852 53 -40 98 -73 102 -73 3 0
78 55 166 123 88 67 290 221 449 341 290 221 610 465 1088 831 143 110 322
246 398 304 l137 105 -7 391 c-13 651 -10 982 11 1120 91 619 344 1110 816
1586 146 148 333 309 356 309 19 0 951 -366 966 -379 4 -4 41 -76 83 -161 42
-85 79 -156 84 -158 4 -1 113 42 242 97 l234 100 28 88 c38 123 117 410 116
425 0 7 -59 63 -130 123 -152 129 -433 410 -475 475 -16 25 -76 139 -134 255
l-105 209 -145 57 -145 57 -115 143 c-139 173 -346 389 -482 502 -283 233
-622 420 -953 526 -131 42 -255 74 -261 68 -2 -2 27 -29 64 -61 274 -234 568
-578 732 -856 71 -120 134 -240 128 -245 -2 -1 -148 12 -326 29 -178 17 -324
30 -326 29 -2 -2 32 -73 76 -158 l78 -154 -145 -115 c-372 -297 -611 -539
-850 -861 -350 -471 -592 -1059 -696 -1695 -6 -41 -13 -70 -15 -65 -11 34 -73
376 -128 710 -36 215 -81 464 -101 555 -132 608 -303 1089 -612 1713 -46 92
-83 175 -83 183 0 29 70 297 107 410 l37 111 110 -37 c124 -42 473 -167 640
-229 60 -22 119 -50 131 -63 19 -20 53 -92 119 -250 l16 -37 87 25 c49 13 140
38 203 55 l115 31 81 279 80 278 -154 160 c-212 221 -365 402 -408 484 -20 38
-69 142 -110 231 -50 110 -80 165 -96 174 -13 7 -89 44 -169 82 l-146 68 -96
124 c-100 129 -260 304 -387 423 -278 262 -636 495 -965 628 -144 59 -425 145
-425 130z"/></g>
</svg>
